<svg width="42" height="42" viewBox="0 0 42 42" fill="none" xmlns="http://www.w3.org/2000/svg">
<path d="M15.0061 29.7367H35.5201C36.2048 29.7367 36.8026 29.1742 36.8026 28.4182C36.8026 27.6622 36.2048 27.0998 35.5201 27.0998H15.3046C14.3026 27.0998 13.6876 26.3962 13.5293 25.3245L13.2481 23.4788H35.5546C38.1211 23.4788 39.4396 21.8962 39.8086 19.383L41.2148 10.0838C41.2522 9.86293 41.2757 9.64 41.2853 9.41625C41.2853 8.5725 40.6523 7.992 39.6856 7.992H10.9808L10.6463 5.76C10.4708 4.40625 9.97884 3.72 8.18634 3.72H2.01534C1.31259 3.72 0.714844 4.3365 0.714844 5.04C0.714844 5.76 1.31259 6.37575 2.01609 6.37575H7.95684L10.7693 25.6763C11.1391 28.1723 12.4568 29.7367 15.0061 29.7367ZM38.2966 10.6463L37.0501 19.0665C36.9091 20.1563 36.3293 20.8245 35.2921 20.8245L12.8626 20.8417L11.3678 10.6463H38.2966ZM16.3951 38.28C16.7699 38.2831 17.1416 38.2116 17.4885 38.0695C17.8354 37.9275 18.1506 37.7179 18.4157 37.4528C18.6807 37.1878 18.8904 36.8726 19.0324 36.5257C19.1744 36.1788 19.2459 35.8071 19.2428 35.4322C19.2444 35.0578 19.1719 34.6868 19.0293 34.3406C18.8868 33.9944 18.6771 33.6798 18.4123 33.415C18.1475 33.1503 17.833 32.9406 17.4868 32.798C17.1405 32.6555 16.7695 32.5829 16.3951 32.5845C14.7961 32.5845 13.5301 33.8505 13.5301 35.4322C13.5301 37.032 14.7961 38.28 16.3951 38.28ZM32.8306 38.28C34.4303 38.28 35.6956 37.032 35.6956 35.4322C35.6956 33.8498 34.4303 32.5845 32.8306 32.5845C31.2488 32.5845 29.9656 33.8505 29.9656 35.4322C29.9656 37.032 31.2488 38.28 32.8306 38.28Z" fill="black"/>
</svg>
