<svg width="46" height="46" viewBox="0 0 46 46" fill="none" xmlns="http://www.w3.org/2000/svg">
<path fill-rule="evenodd" clip-rule="evenodd" d="M36.1315 12.3648C36.2954 12.2011 36.4255 12.0067 36.5142 11.7927C36.603 11.5788 36.6488 11.3494 36.6489 11.1177C36.6491 10.8861 36.6036 10.6567 36.5151 10.4426C36.4265 10.2285 36.2967 10.034 36.133 9.87006C35.9693 9.70615 35.7749 9.57609 35.561 9.48731C35.347 9.39853 35.1176 9.35276 34.886 9.35262C34.6543 9.35247 34.4249 9.39796 34.2108 9.48648C33.9967 9.575 33.8022 9.70482 33.6383 9.86853L23 20.5068L12.3648 9.86853C12.0338 9.5375 11.5848 9.35153 11.1167 9.35153C10.6485 9.35153 10.1996 9.5375 9.86856 9.86853C9.53753 10.1996 9.35156 10.6485 9.35156 11.1167C9.35156 11.5848 9.53753 12.0338 9.86856 12.3648L20.5068 23L9.86856 33.6352C9.70465 33.7991 9.57463 33.9937 9.48592 34.2078C9.39722 34.422 9.35156 34.6515 9.35156 34.8833C9.35156 35.1151 9.39722 35.3447 9.48592 35.5588C9.57463 35.773 9.70465 35.9675 9.86856 36.1315C10.1996 36.4625 10.6485 36.6485 11.1167 36.6485C11.3485 36.6485 11.578 36.6028 11.7922 36.5141C12.0063 36.4254 12.2009 36.2954 12.3648 36.1315L23 25.4932L33.6383 36.1315C33.9693 36.4621 34.4181 36.6477 34.886 36.6474C35.3538 36.6471 35.8024 36.4609 36.133 36.1299C36.4636 35.7989 36.6492 35.3501 36.6489 34.8822C36.6486 34.4144 36.4625 33.9658 36.1315 33.6352L25.4932 23L36.1315 12.3648Z" fill="black"/>
</svg>
