<svg width="48" height="48" viewBox="0 0 48 48" fill="none" xmlns="http://www.w3.org/2000/svg">
<path d="M14 34V36C14 37.2 14.8 38 16 38H32C33.2 38 34 37.2 34 36V34C34 32.4087 33.3679 30.8826 32.2426 29.7574C31.1174 28.6321 29.5913 28 28 28H20C18.4087 28 16.8826 28.6321 15.7574 29.7574C14.6321 30.8826 14 32.4087 14 34ZM30 16C30 17.5913 29.3679 19.1174 28.2426 20.2426C27.1174 21.3679 25.5913 22 24 22C22.4087 22 20.8826 21.3679 19.7574 20.2426C18.6321 19.1174 18 17.5913 18 16C18 14.4087 18.6321 12.8826 19.7574 11.7574C20.8826 10.6321 22.4087 10 24 10C25.5913 10 27.1174 10.6321 28.2426 11.7574C29.3679 12.8826 30 14.4087 30 16Z" stroke="black" stroke-width="3"/>
</svg>
